<svg width="105" height="60" xmlns="http://www.w3.org/2000/svg" version="1.1">
  <g transform="translate(0,-992.36218)">
    <path style="fill:#fb003f" d="m 80.752031,1008.2582 -3.438,0 0,2.052 1.242,0 0,8.748 -1.242,0 0,2.052 3.438,0 0,-1.44 c 0.737999,1.044 1.944001,1.584 3.222,1.584 1.259999,0 2.556001,-0.63 3.402,-1.566 0.845999,-0.918 1.296,-2.142 1.296,-3.384 0,-2.718 -2.232003,-4.95 -4.95,-4.95 -1.223999,0 -2.286001,0.522 -2.97,1.53 l 0,-4.626 m 2.826,5.094 c 1.601998,0 2.916,1.314 2.916,2.916 0,1.566 -1.242002,2.952 -2.862,2.952 -1.655998,0 -2.97,-1.296 -2.97,-2.97 0,-1.602 1.314001,-2.898 2.916,-2.898 m -11.773406,8.01 c 2.825997,0 5.058,-2.304 5.058,-5.112 0,-2.736 -2.232003,-5.04 -5.004,-5.04 -2.789998,0 -5.076,2.25 -5.076,5.058 0,2.772 2.214002,5.094 5.022,5.094 m 0,-2.16 c -1.637999,0 -2.862,-1.368 -2.862,-2.952 0,-1.602 1.332001,-2.88 2.916,-2.88 1.601998,0 2.844,1.368 2.844,2.934 0,1.602 -1.296002,2.898 -2.898,2.898 m -10.441407,2.16 c 2.825998,0 5.058,-2.304 5.058,-5.112 0,-2.736 -2.232002,-5.04 -5.004,-5.04 -2.789997,0 -5.076,2.25 -5.076,5.058 0,2.772 2.214003,5.094 5.022,5.094 m 0,-2.16 c -1.637998,0 -2.862,-1.368 -2.862,-2.952 0,-1.602 1.332002,-2.88 2.916,-2.88 1.601999,0 2.844,1.368 2.844,2.934 0,1.602 -1.296001,2.898 -2.898,2.898 m -8.858812,1.908 3.438,0 0,-2.052 -1.242,0 0,-10.8 -3.456,0 0,2.052 1.26,0 0,2.592 c -0.755999,-0.99 -1.944001,-1.566 -3.168,-1.566 -2.717997,0 -4.878,2.286 -4.878,4.968 0,2.664 2.214003,4.95 4.896,4.95 1.277999,0 2.430001,-0.504 3.15,-1.584 l 0,1.44 m -2.862,-1.872 c -1.601999,0 -2.898,-1.314 -2.898,-2.898 0,-1.638 1.296002,-2.952 2.934,-2.952 1.565998,0 2.88,1.296 2.88,2.88 0,1.62 -1.278002,2.97 -2.916,2.97 m -6.980063,-0.666 -2.268,0 0,2.538 2.268,0 0,-2.538 m -7.107468,-7.074 -3.276,0 0,2.052 1.242,0 0,5.508 -1.242,0 0,2.052 4.68,0 0,-2.052 -1.242,0 0,-2.43 c 0,-0.9 0.108,-1.674 0.828,-2.286 0.539999,-0.486 1.188,-0.666 1.89,-0.702 l 0,-2.25 c -1.241999,0.054 -2.322001,0.612 -2.88,1.746 l 0,-1.638 m -5.326875,-1.188 1.404,0 0,-2.052 -4.824,0 -3.492,9.072 -3.492,-9.072 -4.824,0 0,2.052 1.404,0 0,8.748 -1.404,0 0,2.052 5.346,0 0,-2.052 -1.494,0 0,-7.47 3.654,9.522 1.728,0 3.546,-9.522 0,7.47 -1.386,0 0,2.052 5.238,0 0,-2.052 -1.404,0 0,-8.748"/>
    <path style="fill:#0082fd" d="m 83.934,1028.3502 -2.184,0 0,1.368 0.828,0 0,3.672 -0.828,0 0,1.368 3.12,0 0,-1.368 -0.828,0 0,-1.62 c 0,-0.6 0.072,-1.116 0.552,-1.524 0.359999,-0.324 0.792,-0.444 1.26,-0.468 l 0,-1.5 c -0.828,0.036 -1.548001,0.408 -1.92,1.164 l 0,-1.092 m -4.320938,4.524 c -0.36,0.528 -0.912001,0.768 -1.548,0.768 -0.911999,0 -1.728,-0.648 -1.92,-1.536 l 5.184,0 0.048,-0.516 c 0,-0.912 -0.264001,-1.728 -0.9,-2.4 -0.623999,-0.636 -1.512001,-1.032 -2.4,-1.032 -1.907998,0 -3.336,1.524 -3.336,3.42 0,1.884 1.500002,3.348 3.372,3.348 1.331999,0 2.520001,-0.828 3.024,-2.052 l -1.524,0 m -3.48,-1.896 c 0.18,-0.84 1.008001,-1.512 1.872,-1.512 0.947999,0 1.764,0.588 2.016,1.512 l -3.888,0 m -3.010125,-1.26 1.092,0 0,-1.368 -1.092,0 0,-2.16 -1.464,0 0,2.16 -1.008,0 0,1.368 1.008,0 0,5.04 2.628,0 0,-1.368 -1.164,0 0,-3.672 m -4.078125,0 1.092,0 0,-1.368 -1.092,0 0,-2.16 -1.464,0 0,2.16 -1.008,0 0,1.368 1.008,0 0,5.04 2.628,0 0,-1.368 -1.164,0 0,-3.672 m -3.693375,-1.368 -2.292,0 0,1.368 0.828,0 0,3.672 -0.84,0 0,1.368 3.132,0 0,-1.368 -0.828,0 0,-5.04 m 0,-2.16 -1.464,0 0,1.548 1.464,0 0,-1.548 m -3.598312,3.528 0.852,0 0,-1.368 -3.024,0 0,1.368 0.732,0 -0.984,3.012 -0.012,0 -1.248,-4.14 -1.2,0 -1.344,4.14 -0.012,0 -0.924,-3.012 0.708,0 0,-1.368 -2.964,0 0,1.368 0.804,0 1.536,5.04 1.368,0 1.38,-3.768 1.164,3.768 1.416,0 1.752,-5.04 m -10.966125,0 1.092,0 0,-1.368 -1.092,0 0,-2.16 -1.464,0 0,2.16 -1.008,0 0,1.368 1.008,0 0,5.04 2.628,0 0,-1.368 -1.164,0 0,-3.672 m -8.088938,7.38 5.376,-10.908 -1.068,0 -5.364,10.908 1.056,0 m -8.905875,-1.788 c 0.336,1.392 1.728001,2.052 3.06,2.052 0.947999,0 1.824001,-0.3 2.508,-0.972 0.731999,-0.732 0.804,-1.5 0.804,-2.484 l 0,-4.188 0.828,0 0,-1.368 -2.172,0 0,0.936 c -0.479999,-0.744 -1.272001,-1.044 -2.136,-1.044 -1.775998,0 -3.252,1.536 -3.252,3.3 0,1.788 1.416002,3.312 3.24,3.312 0.863999,0 1.596,-0.324 2.052,-1.068 l 0,0.24 c 0,0.6 -0.036,1.008 -0.444,1.488 -0.324,0.372 -0.852,0.588 -1.356,0.588 -0.563999,0 -1.188,-0.252 -1.44,-0.792 l -1.692,0 m 1.14,-3.78 c 0,-1.068 0.876001,-1.944 1.944,-1.944 1.067999,0 1.956,0.864 1.956,1.932 0,1.08 -0.840001,1.98 -1.944,1.98 -1.091999,0 -1.956,-0.876 -1.956,-1.968 m -5.112937,3.396 c 1.883998,0 3.372,-1.536 3.372,-3.408 0,-1.824 -1.488002,-3.36 -3.336,-3.36 -1.859999,0 -3.384,1.5 -3.384,3.372 0,1.848 1.476001,3.396 3.348,3.396 m 0,-1.44 c -1.091999,0 -1.908,-0.912 -1.908,-1.968 0,-1.068 0.888001,-1.92 1.944,-1.92 1.067998,0 1.896,0.912 1.896,1.956 0,1.068 -0.864002,1.932 -1.932,1.932 m -4.545375,-7.296 -2.292,0 0,1.368 0.828,0 0,5.832 -0.888,0 0,1.368 3.18,0 0,-1.368 -0.828,0 0,-7.2 m -7.981875,0 -2.292,0 0,1.368 0.828,0 0,5.832 -0.828,0 0,1.368 2.292,0 0,-0.96 c 0.491999,0.696 1.296,1.056 2.148,1.056 0.839999,0 1.704,-0.42 2.268,-1.044 0.563999,-0.612 0.864,-1.428 0.864,-2.256 0,-1.812 -1.488002,-3.3 -3.3,-3.3 -0.816,0 -1.524001,0.348 -1.98,1.02 l 0,-3.084 m 1.884,3.396 c 1.067998,0 1.944,0.876 1.944,1.944 0,1.044 -0.828002,1.968 -1.908,1.968 -1.103999,0 -1.98,-0.864 -1.98,-1.98 0,-1.068 0.876001,-1.932 1.944,-1.932"/>
  </g>
</svg>